<svg fill="none" height="16" viewBox="0 0 22 16" width="22" xmlns="http://www.w3.org/2000/svg"><path clip-rule="evenodd" d="m3.29298 1.33334h15.40742c1.6364 0 2.963 1.35672 2.963 3.03031v7.27275c0 1.6736-1.3266 3.0303-2.963 3.0303h-15.40742c-1.6364 0-2.962963-1.3567-2.962963-3.0303v-7.27275c0-1.67359 1.326563-3.03031 2.962963-3.03031zm4.51319 9.69696h-3.95733v-5.93938h3.86607v.96728h-2.77096v1.44242h2.22341v.96727h-2.22341v1.58671h2.86222zm1.95028 0h-1.09511v-5.93938h1.18637l2.51379 4.19152v-4.19152h1.0951v5.93938h-1.1781l-2.52205-4.18301zm8.88465-1.70544c0 1.10304-.8877 1.77334-2.1654 1.77334-1.3191 0-2.1819-.8146-2.24-2.06182h1.0537c.058.66182.4895 1.08602 1.1863 1.08602.6223 0 1.0537-.25451 1.0537-.78057 0-.54468-.5714-.69464-1.225-.8662-.8737-.22933-1.8944-.49726-1.8944-1.79804 0-.97576.8213-1.65455 1.9994-1.65455 1.2278 0 2.0575.72122 2.1072 1.83273h-1.0453c-.0498-.51757-.448-.86545-1.0619-.86545-.5725 0-.9292.27151-.9292.68727 0 .56514.5837.70568 1.2494.86599.8835.21274 1.9115.46029 1.9115 1.78128z" fill="currentColor" fill-rule="evenodd"></path></svg>
