<?xml version="1.0" encoding="UTF-8" ?>
<!DOCTYPE svg PUBLIC "-//W3C//DTD SVG 1.1//EN" "http://www.w3.org/Graphics/SVG/1.1/DTD/svg11.dtd">
<svg width="1024pt" height="1024pt" viewBox="0 0 1024 1024" version="1.1" xmlns="http://www.w3.org/2000/svg">
<g id="#627eeaff">
<path fill="#627eea" opacity="1.00" d=" M 509.30 0.00 L 514.65 0.00 C 599.11 0.40 683.39 22.06 757.46 62.68 C 819.93 96.76 875.13 144.06 918.37 200.58 C 957.10 251.08 986.28 308.87 1003.88 370.03 C 1016.80 414.60 1023.46 460.93 1024.00 507.32 L 1024.00 515.71 C 1023.35 604.42 999.26 692.85 954.50 769.47 C 916.65 834.67 864.15 891.29 801.98 933.93 C 738.02 977.97 663.91 1007.13 587.09 1018.45 C 563.13 1022.01 538.92 1023.78 514.71 1024.00 L 509.33 1024.00 C 449.85 1023.62 390.44 1012.90 334.66 992.23 C 271.06 968.81 212.21 932.55 162.69 886.27 C 104.81 832.36 59.74 764.82 32.22 690.67 C 11.47 635.13 0.62 575.97 0.00 516.70 L 0.00 507.30 C 0.34 481.45 2.43 455.61 6.62 430.09 C 19.84 347.92 53.55 269.14 103.90 202.86 C 154.44 136.00 221.72 81.90 297.91 46.96 C 363.95 16.46 436.56 0.41 509.30 0.00 M 288.58 518.21 L 287.66 518.54 C 297.87 525.11 308.62 530.80 319.04 537.03 C 388.70 577.40 458.22 617.99 527.96 658.20 C 541.04 650.94 553.85 643.21 566.84 635.79 C 633.87 596.70 701.15 558.03 768.07 518.75 C 767.89 518.69 767.53 518.55 767.35 518.48 C 732.14 460.53 696.46 402.85 661.07 344.99 C 616.68 272.69 572.38 200.33 527.93 128.06 C 448.12 258.09 368.27 388.10 288.58 518.21 M 288.16 563.95 C 368.11 674.55 448.00 785.19 527.92 895.80 C 607.95 785.24 687.84 674.56 767.83 563.96 C 757.17 569.85 746.75 576.14 736.18 582.20 C 666.76 622.46 597.35 662.74 527.92 703.00 C 482.25 676.29 436.40 649.86 390.66 623.26 C 356.47 603.53 322.47 583.46 288.16 563.95 Z" />
</g>
<g id="#ffffffff">
<path fill="#ffffff" opacity="1.00" d=" M 288.58 518.21 C 368.27 388.10 448.12 258.09 527.93 128.06 C 527.71 222.59 527.97 317.11 527.80 411.64 C 452.66 445.21 377.52 478.80 302.38 512.37 C 297.80 514.37 293.34 516.65 288.58 518.21 Z" />
<path fill="#ffffff" opacity="1.00" d=" M 288.16 563.95 C 322.47 583.46 356.47 603.53 390.66 623.26 C 436.40 649.86 482.25 676.29 527.92 703.00 C 527.80 767.27 527.81 831.54 527.92 895.80 C 448.00 785.19 368.11 674.55 288.16 563.95 Z" />
</g>
<g id="#c1ccf7ff">
<path fill="#c1ccf7" opacity="1.00" d=" M 527.93 128.06 C 572.38 200.33 616.68 272.69 661.07 344.99 C 696.46 402.85 732.14 460.53 767.35 518.48 C 750.57 511.57 734.17 503.75 717.55 496.48 C 654.38 468.28 591.26 439.98 528.07 411.83 C 527.75 493.95 527.97 576.08 527.96 658.20 C 458.22 617.99 388.70 577.40 319.04 537.03 C 308.62 530.80 297.87 525.11 287.66 518.54 L 288.58 518.21 C 293.34 516.65 297.80 514.37 302.38 512.37 C 377.52 478.80 452.66 445.21 527.80 411.64 C 527.97 317.11 527.71 222.59 527.93 128.06 Z" />
<path fill="#c1ccf7" opacity="1.00" d=" M 736.18 582.20 C 746.75 576.14 757.17 569.85 767.83 563.96 C 687.84 674.56 607.95 785.24 527.92 895.80 C 527.81 831.54 527.80 767.27 527.92 703.00 C 597.35 662.74 666.76 622.46 736.18 582.20 Z" />
</g>
<g id="#8198eeff">
<path fill="#8198ee" opacity="1.00" d=" M 528.07 411.83 C 591.26 439.98 654.38 468.28 717.55 496.48 C 734.17 503.75 750.57 511.57 767.35 518.48 C 767.53 518.55 767.89 518.69 768.07 518.75 C 701.15 558.03 633.87 596.70 566.84 635.79 C 553.85 643.21 541.04 650.94 527.96 658.20 C 527.97 576.08 527.75 493.95 528.07 411.83 Z" />
</g>
</svg>
