<svg width="919" height="919" xmlns="http://www.w3.org/2000/svg" xmlns:xlink="http://www.w3.org/1999/xlink" xml:space="preserve" overflow="hidden"><defs><clipPath id="clip0"><rect x="648" y="716" width="919" height="919"/></clipPath><clipPath id="clip1"><rect x="696" y="1024" width="822" height="324"/></clipPath><clipPath id="clip2"><rect x="696" y="1024" width="822" height="324"/></clipPath><clipPath id="clip3"><rect x="696" y="1024" width="822" height="324"/></clipPath></defs><g clip-path="url(#clip0)" transform="translate(-648 -716)"><path d="M1107.5 716C1361.24 716 1567 921.764 1567 1175.5 1567 1429.24 1361.24 1635 1107.5 1635 853.764 1635 648 1429.24 648 1175.5 648 921.764 853.764 716 1107.5 716L1107.5 716Z" fill="#00A6C4" fill-rule="evenodd"/><g clip-path="url(#clip1)"><g clip-path="url(#clip2)"><g clip-path="url(#clip3)"><path d="M541.178 80.6239 529.313 92.4883C539.201 107.696 541.396 126.656 535.245 143.721 524.311 174.043 490.929 189.83 460.554 179.044 456.372 177.56 452.386 175.568 448.689 173.112L410.669 211.132 377.503 177.696C361.67 188.248 341.797 190.744 323.844 184.437 292.77 173.373 276.548 139.212 287.612 108.137 287.644 108.044 287.679 107.951 287.711 107.858 289.356 103.172 291.624 98.7278 294.452 94.6454L280.161 80.3542 277.465 84.9382C232.491 158.505 255.67 254.602 329.237 299.576 353.677 314.517 381.755 322.447 410.4 322.495L410.669 322.495C496.851 322.541 566.751 252.717 566.797 166.537 566.813 137.952 558.977 109.912 544.144 85.4775Z" fill="#FFFFFF" transform="matrix(1.00146 0 0 1 696 1024.75)"/><path d="M311.979 112.172C307.778 117.773 305.508 124.586 305.508 131.587 305.538 149.147 319.767 163.375 337.326 163.405 344.377 163.441 351.229 161.062 356.74 156.664Z" fill="#FFFFFF" transform="matrix(1.00146 0 0 1 696 1024.75)"/><path d="M468.104 153.967C473.34 157.553 479.556 159.436 485.9 159.36 503.46 159.331 517.689 145.102 517.719 127.542 517.754 121.202 515.874 114.999 512.326 109.746Z" fill="#FFFFFF" transform="matrix(1.00146 0 0 1 696 1024.75)"/><path d="M411.209 187.403 282.318 57.9737 287.442 52.5808C319.017 18.9069 363.161-0.137449 409.321-3.8319e-14L409.591 0C456.889 0.0679929 501.952 20.1498 533.628 55.2772L538.481 60.6701ZM303.351 57.9737 411.209 166.101 517.719 60.1308C489.144 31.4331 450.356 15.2389 409.86 15.1001L409.591 15.1001C369.921 14.8808 331.758 30.2817 303.351 57.9737Z" fill="#FFFFFF" transform="matrix(1.00146 0 0 1 696 1024.75)"/><path d="M269.106 270.724 254.006 269.645C189.83 265.6 101.387 249.691 44.2218 198.189 8.89829 166.641 2.15716 136.71 1.88752 135.362L0 126.194 233.513 126.194 232.164 134.823C231.089 142.686 230.548 150.614 230.547 158.551 230.422 193.954 240.841 228.592 260.477 258.05Z" fill="#FFFFFF" transform="matrix(1.00146 0 0 1 696 1024.75)"/><path d="M551.694 270.724 560.053 258.05C579.648 228.773 590.067 194.319 589.983 159.091 589.991 150.974 589.449 142.866 588.365 134.823L587.287 126.194 820.799 126.194 818.912 135.362C818.642 136.71 811.901 166.641 776.847 198.189 719.683 249.691 630.969 265.6 566.794 269.645Z" fill="#FFFFFF" transform="matrix(1.00146 0 0 1 696 1024.75)"/></g></g></g></g></svg>