<svg width="919" height="919" xmlns="http://www.w3.org/2000/svg" xmlns:xlink="http://www.w3.org/1999/xlink" xml:space="preserve" overflow="hidden"><defs><clipPath id="clip0"><rect x="815" y="543" width="919" height="919"/></clipPath><clipPath id="clip1"><rect x="1043" y="728" width="462" height="551"/></clipPath><clipPath id="clip2"><rect x="1043" y="728" width="462" height="551"/></clipPath><clipPath id="clip3"><rect x="1043" y="728" width="462" height="551"/></clipPath></defs><g clip-path="url(#clip0)" transform="translate(-815 -543)"><path d="M1274.5 543C1528.24 543 1734 748.764 1734 1002.5 1734 1256.24 1528.24 1462 1274.5 1462 1020.76 1462 815 1256.24 815 1002.5 815 748.764 1020.76 543 1274.5 543L1274.5 543Z" fill="#F08FA2" fill-rule="evenodd"/><g clip-path="url(#clip1)"><g clip-path="url(#clip2)"><g clip-path="url(#clip3)"><path d="M225.332 547.872C224.988 547.872 224.988 547.872 224.645 547.872 109.918 547.529 54.959 492.57 28.8535 446.885 4.80891 404.292-4.46542 357.577 2.06096 308.114 7.21337 266.895 23.7011 223.614 49.8066 183.769 66.2943 158.351 87.9344 132.589 110.948 111.635 127.78 96.1782 141.519 86.2169 152.511 81.7515 149.076 67.6683 147.015 45.3412 146.328 37.7843L146.328 36.4103C145.985 18.8922 165.564 10.9918 172.09 8.24385 184.456 3.09144 199.226 0.343494 213.31-4.7288e-14 227.393-0.343494 241.476 0.686987 253.155 3.43494 260.368 5.1524 282.008 9.96132 282.352 28.51L283.382 60.1114C283.382 65.9508 283.039 71.1032 282.352 75.9121 343.837 97.5522 396.048 162.472 417.345 197.509L417.345 197.509C425.932 211.592 446.885 249.72 456.16 297.465 467.151 354.829 457.877 406.009 428.337 450.32 367.538 540.659 258.651 547.872 225.332 547.872ZM164.19 117.131C150.45 124.688 110.605 158.007 81.0645 204.035 51.8675 249.033 10.3048 338.341 61.4854 428.68 91.7128 482.265 148.389 510.775 224.988 511.119 225.332 511.119 225.332 511.119 225.675 511.119 254.185 511.119 347.272 504.936 397.079 430.054 455.816 342.12 397.766 237.354 385.4 217.431L385.4 217.431C374.752 199.913 353.111 171.403 326.319 147.359L213.997 130.184 128.81 147.015 173.808 121.597C172.09 120.91 170.373 120.223 168.655 119.192 166.938 118.505 165.22 117.818 164.19 117.131ZM266.895 116.444 309.144 132.932C297.809 124.688 286.13 117.475 273.764 112.666 272.047 113.696 270.329 114.727 268.269 115.757 267.925 116.101 267.582 116.444 266.895 116.444ZM167.281 115.757 167.281 115.757ZM183.769 43.6237C185.487 57.7069 187.548 72.1337 188.922 76.2556 191.669 83.8124 196.135 88.6214 203.005 91.3693L216.744 96.8652 228.423 90.3388C234.606 86.9039 238.728 81.7515 239.072 81.408L240.446 79.347 241.133 79.0035C242.163 77.6296 245.598 72.1337 245.254 61.4854L245.254 39.8453C238.728 38.1278 227.393 36.7538 213.997 37.0973 201.287 37.4408 189.952 40.8757 183.769 43.6237Z" fill="#0B4431" transform="matrix(1.00081 0 0 1 1044 729.064)"/><path d="" stroke="#FFFFFF" stroke-width="3.43494" stroke-miterlimit="10" fill="none" transform="matrix(1.00081 0 0 1 1044 729.064)"/><path d="M412.192 440.015C355.859 524.858 251.437 529.324 224.645 529.324 190.982 529.324 94.4608 525.202 44.9977 437.611-2.40446 353.798 19.9226 263.46 65.2638 193.73 100.644 139.115 151.481 97.8957 164.533 97.2087 166.938 97.2087 170.716 99.6132 176.556 102.361 184.8 106.14 197.509 110.948 217.431 109.231 240.446 107.17 252.811 103.048 260.025 99.2697 268.269 95.1477 270.329 91.7128 273.764 93.0868 332.845 113.009 382.995 177.93 401.201 207.47 420.78 239.759 474.365 346.929 412.192 440.015Z" fill="#77BAA1" transform="matrix(1.00081 0 0 1 1044 729.064)"/><path d="M75.9121 255.216C75.9121 255.216 50.1501 318.075 55.646 365.134 60.7984 410.475 91.3693 477.8 166.251 494.287 241.133 510.775 289.565 491.539 331.128 472.991 372.347 454.442 400.857 415.627 404.979 378.874 409.101 342.12 409.444 288.535 388.835 244.911" fill="#F3ACBB" transform="matrix(1.00081 0 0 1 1044 729.064)"/><path d="M258.651 139.802C256.246 148.389 217.088 156.633 199.226 151.824 181.708 147.015 180.334 135.68 176.212 102.361 184.456 106.14 197.165 110.948 217.088 109.231 240.102 107.17 252.468 103.048 259.681 99.2697 260.368 107.857 261.055 131.558 258.651 139.802Z" fill="#89B772" transform="matrix(1.00081 0 0 1 1044 729.064)"/><path d="M165.564 455.129C163.503 450.32 163.159 445.168 163.846 440.015 166.251 421.467 179.304 372.347 246.972 335.25 331.815 288.535 376.469 328.036 376.469 328.036 376.469 328.036 403.262 351.738 382.995 408.07 362.729 464.06 263.46 484.67 263.46 484.67 263.46 484.67 184.456 502.875 165.564 455.129Z" fill="#F08FA2" transform="matrix(1.00081 0 0 1 1044 729.064)"/><path d="M83.8124 352.424C78.3166 352.424 77.9731 330.784 84.8429 321.167 95.8347 305.709 114.727 320.136 114.727 320.136 114.727 320.136 98.2392 352.424 83.8124 352.424Z" fill="#F08FA2" transform="matrix(1.00081 0 0 1 1044 729.064)"/><path d="M388.835 244.911C388.835 236.667 318.762 230.141 232.202 230.141 145.641 230.141 75.5686 246.972 75.5686 255.216 75.5686 263.46 145.641 277.886 232.202 277.886 318.762 277.886 388.835 253.155 388.835 244.911Z" fill="#F8D0D9" transform="matrix(1.00081 0 0 1 1044 729.064)"/><path d="M164.533 36.0668C164.533 36.0668 170.373 72.1337 172.777 82.4385 174.838 91.0258 188.235 109.574 212.966 112.322 239.415 115.07 254.529 92.0563 254.529 92.0563 254.529 92.0563 265.177 82.095 264.49 60.7984 263.803 39.5018 263.46 29.197 263.46 29.197 263.46 29.197 207.814 34.3494 164.533 36.0668Z" fill="#DD8843" transform="matrix(1.00081 0 0 1 1044 729.064)"/><path d="M263.46 29.197C263.46 24.0446 240.446 17.8617 213.653 18.5487 186.517 19.2356 164.19 30.9144 164.533 36.0668 164.533 41.2192 187.548 49.1196 214.34 48.4326 241.476 47.7456 263.46 34.3494 263.46 29.197Z" fill="#EBB646" transform="matrix(1.00081 0 0 1 1044 729.064)"/><path d="M88.6214 265.177C85.8734 264.49 83.8124 262.773 82.095 260.368 77.2861 252.811 70.4162 232.889 97.8957 194.761 133.619 144.611 152.855 161.442 152.855 161.442 152.855 161.442 176.556 173.464 150.794 215.714 150.45 216.058 150.45 216.401 150.107 216.744 147.702 222.584 122.284 274.451 88.6214 265.177Z" fill="#FFFFFF" transform="matrix(1.00081 0 0 1 1044 729.064)"/><path d="M343.494 467.495C337.654 466.464 333.876 461.312 334.906 455.473 336.28 448.259 340.402 437.267 352.424 426.619 370.973 410.131 384.369 424.902 387.461 429.024 388.148 430.054 388.491 431.085 388.835 432.115 389.522 435.55 389.178 442.42 379.904 452.725 369.256 464.403 356.203 469.899 343.494 467.495Z" fill="#FFFFFF" transform="matrix(1.00081 0 0 1 1044 729.064)"/><path d="M429.367 315.327C432.802 324.258 407.383 290.939 403.949 290.596 398.796 289.909 372.691 353.111 366.164 354.829 357.92 356.89 290.939 308.114 276.512 309.488 250.75 311.205 197.852 388.835 190.982 390.209 182.739 391.583 123.658 320.823 102.361 318.075 95.1477 317.045 45.3412 377.5 41.2192 373.034 39.1583 370.973 34.3494 322.884 35.0364 309.488 35.7233 300.9 41.5627 343.15 43.9672 343.15 48.0891 343.494 93.7738 297.809 103.392 298.496 111.979 299.183 179.647 359.294 186.174 357.92 192.7 356.546 258.307 291.97 272.39 289.909 283.382 288.535 341.776 330.784 357.577 328.036 367.195 326.662 396.735 274.451 401.888 273.077 406.353 272.734 425.589 305.709 429.367 315.327Z" fill="#A5D4C1" transform="matrix(1.00081 0 0 1 1044 729.064)"/></g></g></g></g></svg>